# File created by Blade
# Date/Time:  Tue Jan 27 18:35:03 2015
# Frame Rate: 120.000 fps
#------------------------------------------------------
:FULLY-SPECIFIED
:DEGREES
2169
root -5.766138 31.777824 -0.472749 8.649794 2.460441 0.481847
Spine -4.992910 -9.673832 -4.652359
Head 2.045613 7.782409 13.682587
LeftShoulder -16.463262 17.351449 11.787006
LeftArm 21.485444 -28.627493 -80.792336
LeftForeArm 126.446677 -0.000000 132.433070
LeftHand 7.233854 -0.000000 4.565911
LeftHandThumb1 -26.253704 0.000000 33.147579
RightShoulder -15.618658 -8.532024 -8.476288
RightArm 2.210911 -32.273986 87.396843
RightForeArm -20.128540 -0.000000 28.347070
RightHand -14.497601 -0.000000 10.420981
RightHandThumb1 -24.326973 -0.000000 -32.862282
LeftUpLeg -3.590381 5.870903 -4.337747
LeftLeg 1.750205 -0.000000 -0.000000
LeftFoot -20.775202 23.097877 -18.012518
LeftToeBase 10.113656 -0.000000 -0.000000
RightUpLeg -6.265498 3.169734 -1.105567
RightLeg 2.682351 -0.000000 -0.000000
RightFoot -13.749066 -5.546479 5.998177
RightToeBase 2.216838 -0.000000 -0.000000
2170
root -5.764780 31.777432 -0.474778 8.646423 2.368550 0.478023
Spine -5.011118 -9.681569 -4.613836
Head 2.154445 7.834446 13.673537
LeftShoulder -16.497418 17.387774 11.747269
LeftArm 21.473816 -28.632361 -80.812699
LeftForeArm 126.514060 -0.000000 132.441348
LeftHand 7.221358 0.000000 4.458639
LeftHandThumb1 -26.253704 0.000000 33.147579
RightShoulder -15.649166 -8.550947 -8.464357
RightArm 2.244106 -32.198973 87.354949
RightForeArm -20.055458 -0.000000 28.373249
RightHand -14.464756 -0.000000 10.375927
RightHandThumb1 -24.326973 -0.000000 -32.862282
LeftUpLeg -3.579925 5.901271 -4.348605
LeftLeg 1.735344 -0.000000 -0.000000
LeftFoot -20.784768 23.166457 -18.004090
LeftToeBase 10.104114 -0.000000 -0.000000
RightUpLeg -6.291810 3.235183 -1.115395
RightLeg 2.711954 -0.000000 -0.000000
RightFoot -13.751756 -5.533208 5.984390
RightToeBase 2.203452 -0.000000 -0.000000
2171
root -5.762215 31.777127 -0.477536 8.648567 2.289905 0.487048
Spine -5.034443 -9.685703 -4.591230
Head 2.244356 7.866140 13.663572
LeftShoulder -16.521217 17.417521 11.726682
LeftArm 21.466473 -28.613918 -80.865510
LeftForeArm 126.538898 -0.000000 132.446096
LeftHand 7.215700 -0.000000 4.473388
LeftHandThumb1 -26.253704 0.000000 33.147579
RightShoulder -15.673854 -8.570316 -8.453205
RightArm 2.245428 -31.997739 87.325908
RightForeArm -19.849512 -0.000000 28.430991
RightHand -14.448338 0.000000 10.511991
RightHandThumb1 -24.326973 -0.000000 -32.862282
LeftUpLeg -3.576495 5.885064 -4.372272
LeftLeg 1.720655 -0.000000 -0.000000
LeftFoot -20.824329 23.250976 -18.053560
LeftToeBase 10.159646 -0.000000 -0.000000
RightUpLeg -6.317110 3.306069 -1.141651
RightLeg 2.729358 -0.000000 -0.000000
RightFoot -13.765907 -5.525564 6.017792
RightToeBase 2.243627 -0.000000 -0.000000
2172
root -5.761023 31.776918 -0.479860 8.644045 2.217696 0.487553
Spine -5.057932 -9.709214 -4.566422
Head 2.391273 7.931402 13.689663
LeftShoulder -16.534532 17.425047 11.712999
LeftArm 21.417591 -28.605881 -80.870883
LeftForeArm 126.568235 -0.000000 132.462542
LeftHand 7.197507 -0.000000 4.489897
LeftHandThumb1 -26.253704 0.000000 33.147579
RightShoulder -15.661584 -8.577046 -8.444475
RightArm 2.227363 -31.923411 87.329297
RightForeArm -19.880424 0.000000 28.431668
RightHand -14.508173 0.000000 10.228087
RightHandThumb1 -24.326973 -0.000000 -32.862282
LeftUpLeg -3.573836 5.880014 -4.381424
LeftLeg 1.724754 -0.000000 -0.000000
LeftFoot -20.840105 23.330145 -18.055907
LeftToeBase 10.121495 -0.000000 -0.000000
RightUpLeg -6.335812 3.371752 -1.153745
RightLeg 2.751086 -0.000000 -0.000000
RightFoot -13.765248 -5.526955 6.001905
RightToeBase 2.270683 -0.000000 -0.000000
2173
root -5.759211 31.776656 -0.482464 8.639970 2.171480 0.495977
Spine -5.069784 -9.743285 -4.549500
Head 2.496105 7.951261 13.713682
LeftShoulder -16.540799 17.417376 11.715037
LeftArm 21.364704 -28.585760 -80.900542
LeftForeArm 126.618809 -0.000000 132.474482
LeftHand 7.209583 -0.000000 4.516170
LeftHandThumb1 -26.253704 0.000000 33.147579
RightShoulder -15.688280 -8.590839 -8.431390
RightArm 2.237785 -31.802431 87.307678
RightForeArm -19.878381 -0.000000 28.450331
RightHand -14.582958 -0.000000 10.309812
RightHandThumb1 -24.326973 -0.000000 -32.862282
LeftUpLeg -3.576893 5.855455 -4.398452
LeftLeg 1.732117 -0.000000 -0.000000
LeftFoot -20.850553 23.404879 -18.063931
LeftToeBase 10.107156 -0.000000 -0.000000
RightUpLeg -6.341712 3.449159 -1.173868
RightLeg 2.750000 -0.000000 -0.000000
RightFoot -13.771755 -5.564338 5.995047
RightToeBase 2.279447 -0.000000 -0.000000
2174
root -5.756210 31.776950 -0.486094 8.641722 2.128735 0.497758
Spine -5.095631 -9.776038 -4.500241
Head 2.617507 7.944607 13.700963
LeftShoulder -16.533518 17.413140 11.687232
LeftArm 21.315619 -28.581569 -80.907723
LeftForeArm 126.706513 -0.000000 132.464049
LeftHand 7.166093 -0.000000 4.478433
LeftHandThumb1 -26.253704 0.000000 33.147579
RightShoulder -15.736380 -8.656864 -8.427880
RightArm 2.312030 -31.642726 87.255165
RightForeArm -19.638002 -0.000000 28.471034
RightHand -14.535655 -0.000000 10.453778
RightHandThumb1 -24.326973 -0.000000 -32.862282
LeftUpLeg -3.594147 5.835959 -4.410439
LeftLeg 1.755652 -0.000000 -0.000000
LeftFoot -20.873641 23.471699 -18.063154
LeftToeBase 10.106649 -0.000000 -0.000000
RightUpLeg -6.360336 3.515870 -1.190057
RightLeg 2.759004 -0.000000 -0.000000
RightFoot -13.757871 -5.591911 5.986250
RightToeBase 2.221404 -0.000000 -0.000000
